<svg clip-rule="evenodd" fill-rule="evenodd" stroke-linejoin="round" stroke-miterlimit="2" viewBox="0 0 2500 2500" xmlns="http://www.w3.org/2000/svg"><path d="m833.45 1250c0-230.11 186.49-416.7 416.6-416.7s416.7 186.59 416.7 416.7-186.59 416.7-416.7 416.7-416.6-186.59-416.6-416.7m-225.26 0c0 354.5 287.36 641.86 641.86 641.86s641.86-287.36 641.86-641.86-287.36-641.86-641.86-641.86-641.86 287.36-641.86 641.86m1159.13-667.31v.06c0 82.288 67.71 150 150 150s150-67.712 150-150c0-82.265-67.68-149.967-149.94-150h-.06c-82.25.038-149.93 67.69-150 149.94m-1022.27 1684.78c-121.87-5.55-188.11-25.85-232.13-43-58.36-22.72-100-49.78-143.78-93.5s-70.88-85.32-93.5-143.68c-17.16-44-37.46-110.26-43-232.13-6.06-131.76-7.27-171.34-7.27-505.15s1.31-373.28 7.27-505.15c5.55-121.87 26-188 43-232.13 22.72-58.36 49.78-100 93.5-143.78s85.32-70.88 143.78-93.5c44-17.16 110.26-37.46 232.13-43 131.76-6.06 171.34-7.27 505-7.27s373.28 1.31 505.15 7.27c121.87 5.55 188 26 232.13 43 58.36 22.62 100 49.78 143.78 93.5s70.78 85.42 93.5 143.78c17.16 44 37.46 110.26 43 232.13 6.06 131.87 7.27 171.34 7.27 505.15s-1.21 373.28-7.27 505.15c-5.55 121.87-25.95 188.11-43 232.13-22.72 58.36-49.78 100-93.5 143.68s-85.42 70.78-143.78 93.5c-44 17.16-110.26 37.46-232.13 43-131.76 6.06-171.34 7.27-505.15 7.27s-373.28-1.21-505-7.27m-10.35-2259.9c-133.07 6.06-224 27.16-303.41 58.06-82.24 31.91-151.86 74.72-221.43 144.18s-112.27 139.19-144.18 221.43c-30.9 79.46-52 170.34-58.06 303.41-6.16 133.28-7.57 175.89-7.57 515.35s1.41 382.07 7.57 515.35c6.06 133.08 27.16 223.95 58.06 303.41 31.91 82.19 74.62 152 144.18 221.43s139.19 112.18 221.43 144.18c79.56 30.9 170.34 52 303.41 58.06 133.35 6.06 175.89 7.57 515.35 7.57s382.07-1.41 515.35-7.57c133.08-6.06 223.95-27.16 303.41-58.06 82.19-32 151.86-74.72 221.43-144.18s112.18-139.24 144.18-221.43c30.9-79.46 52.1-170.34 58.06-303.41 6.06-133.38 7.47-175.89 7.47-515.35s-1.41-382.07-7.47-515.35c-6.06-133.08-27.16-224-58.06-303.41-32-82.19-74.72-151.86-144.18-221.43s-139.24-112.27-221.33-144.18c-79.56-30.9-170.44-52.1-303.41-58.06-133.28-6.06-175.89-7.57-515.35-7.57s-382.1 1.41-515.45 7.57" fill-rule="nonzero"/></svg>