<svg clip-rule="evenodd" fill-rule="evenodd" stroke-linejoin="round" stroke-miterlimit="2" viewBox="0 0 2490 2500" xmlns="http://www.w3.org/2000/svg"><path d="m2306.57 5.001c101.38.319 183.43 80.109 183.43 178.365v2133.294c0 98.48-82.38 178.34-184.03 178.34h-2121.943c-101.594 0-184.027-79.84-184.027-178.31v-2133.324c0-98.453 82.423-178.366 184.027-178.366h2121.943zm-971.03 1121.509v-158.678h-372.591c4.863 105.168-.029 1121.008-.029 1121.008l.01-.04h372.58v-625.95c0-33.46 2.43-67.01 12.27-90.91 26.92-66.96 88.23-136.29 191.19-136.29 134.79 0 188.74 102.79 188.74 253.51v599.64h372.57v-642.75c0-344.31-183.8-504.538-428.94-504.538-197.64 0-286.28 108.638-335.8 184.998v3.84h-2.48c.81-1.27 1.63-2.55 2.48-3.84zm-951.457-158.716v1121.006h372.605v-1121.006zm186.38-153.028c129.908 0 210.784-86.081 210.784-193.656-2.431-110.027-80.876-193.705-208.314-193.705-127.525 0-210.813 83.678-210.813 193.695 0 107.576 80.847 193.656 205.902 193.656h2.412z" fill-rule="nonzero"/></svg>