<svg clip-rule="evenodd" fill-rule="evenodd" stroke-linejoin="round" stroke-miterlimit="2" viewBox="0 0 1500 1500" xmlns="http://www.w3.org/2000/svg"><path d="m955.204 1684c699.656 0 1082.276-579.85 1082.276-1082.682 0-16.468-.33-32.86-1.08-49.184 74.45-53.889 138.71-120.616 189.75-197.045-68.16 30.312-141.5 50.714-218.44 59.912 78.53-47.107 138.82-121.633 167.27-210.468-74.67 44.311-156.36 75.549-241.54 92.365-69.42-73.964-168.24-120.224-277.66-120.224-210.06 0-380.4 170.411-380.4 380.468 0 29.864 3.34 58.903 9.86 86.766-316.139-15.914-596.471-167.333-784.084-397.573-33.789 58.067-51.565 124.076-51.506 191.257 0 132.019 67.152 248.562 169.273 316.746-60.403-1.845-119.489-18.169-172.272-47.594-.057 1.598-.057 3.154-.057 4.861 0 184.282 131.115 338.145 305.166 373.015-32.689 8.9-66.421 13.4-100.301 13.38-24.468 0-48.314-2.4-71.489-6.85 48.427 151.19 188.849 261.21 355.337 264.29-130.191 102.08-294.192 162.88-472.437 162.88-30.322.02-60.619-1.74-90.734-5.27 168.346 107.94 368.24 170.92 583.087 170.92" fill-rule="nonzero" transform="matrix(.809057 0 0 .809057 -301.079 -2.69555)"/></svg>